<svg width="25" height="20" viewBox="0 0 25 20" fill="none" xmlns="http://www.w3.org/2000/svg">
<rect width="25" height="20" fill="#9E9E9E"/>
<g id="Education or Online education online courses or elearning or lms figma template" clip-path="url(#clip0_0_1)">
<rect width="1920" height="6430" transform="translate(-1032 -5282)" fill="#2C1F4A"/>
<g id="Group 512836">
<g id="Rectangle 2710">
<rect x="-881" y="-352" width="1045" height="420" rx="30" fill="#381D74"/>
<rect x="-880" y="-351" width="1043" height="418" rx="29" stroke="white" stroke-opacity="0.2" stroke-width="2"/>
</g>
<path id="Vector 90" d="M2 10.136L1.29289 10.8431L0.585786 10.136L1.29289 9.42888L2 10.136ZM23.7278 9.13599C24.2801 9.13599 24.7278 9.5837 24.7278 10.136C24.7278 10.6883 24.2801 11.136 23.7278 11.136V9.13599ZM11.7604 1.78982L2.70711 10.8431L1.29289 9.42888L10.3462 0.375609L11.7604 1.78982ZM2.70711 9.42888L11.7604 18.4821L10.3462 19.8964L1.29289 10.8431L2.70711 9.42888ZM2 9.13599L23.7278 9.13599V11.136L2 11.136V9.13599Z" fill="white"/>
</g>
<g id="Group 512859">
<path id="Vector 90_2" d="M2 10.136L1.29289 10.8431L0.585786 10.136L1.29289 9.42888L2 10.136ZM23.7278 9.13599C24.2801 9.13599 24.7278 9.5837 24.7278 10.136C24.7278 10.6883 24.2801 11.136 23.7278 11.136V9.13599ZM11.7604 1.78982L2.70711 10.8431L1.29289 9.42888L10.3462 0.375609L11.7604 1.78982ZM2.70711 9.42888L11.7604 18.4821L10.3462 19.8964L1.29289 10.8431L2.70711 9.42888ZM2 9.13599L23.7278 9.13599V11.136L2 11.136V9.13599Z" fill="white"/>
</g>
</g>
<defs>
<clipPath id="clip0_0_1">
<rect width="1920" height="6430" fill="white" transform="translate(-1032 -5282)"/>
</clipPath>
</defs>
</svg>
