<svg width="20" height="20" viewBox="0 0 20 20" fill="none" xmlns="http://www.w3.org/2000/svg">
<path fill-rule="evenodd" clip-rule="evenodd" d="M10.0001 16.6667C13.682 16.6667 16.6667 13.682 16.6667 10.0001C16.6667 6.31818 13.682 3.33341 10.0001 3.33341C6.31818 3.33341 3.33341 6.31818 3.33341 10.0001C3.33341 13.682 6.31818 16.6667 10.0001 16.6667ZM10.0001 18.3334C14.6024 18.3334 18.3334 14.6024 18.3334 10.0001C18.3334 5.39771 14.6024 1.66675 10.0001 1.66675C5.39771 1.66675 1.66675 5.39771 1.66675 10.0001C1.66675 14.6024 5.39771 18.3334 10.0001 18.3334Z" fill="white"/>
<path d="M12.8952 17.8167C12.5993 15.7082 12.1063 13.7946 11.4124 11.9858C9.71383 12.8093 7.814 14.2482 5.2017 16.8141C4.74465 16.4916 4.32149 16.1244 3.93861 15.7187C6.68225 13.013 8.77775 11.3954 10.7635 10.4486C10.5087 9.89637 10.2341 9.35196 9.93925 8.81254C7.60135 9.54937 4.93565 9.93762 1.66675 9.99312C1.66721 9.42112 1.72531 8.86254 1.83556 8.32293C4.72051 8.26112 7.05426 7.92722 9.07416 7.33376C8.1366 5.82934 7.03771 4.34437 5.77483 2.81576C6.26726 2.52552 6.79213 2.28447 7.3427 2.09937C8.61708 3.66567 9.73366 5.2051 10.6898 6.77942C12.4862 6.06937 14.0785 5.11107 15.6679 3.89098C16.0765 4.27018 16.4469 4.68987 16.7728 5.14364C15.1197 6.42239 13.4338 7.45881 11.5244 8.24011C11.8054 8.76487 12.069 9.29546 12.3152 9.83396C14.2041 9.23554 16.0633 9.17371 18.2923 9.16737C18.3195 9.44121 18.3334 9.71904 18.3334 10C18.3334 10.2816 18.3194 10.56 18.2922 10.8344C16.1386 10.842 14.5414 10.9027 12.9642 11.3775C13.6414 13.1405 14.1424 15.0042 14.4641 17.0381C13.9736 17.3499 13.4482 17.6118 12.8952 17.8167Z" fill="white"/>
</svg>
